<svg width="30" height="30" viewBox="0 0 30 30" fill="none" xmlns="http://www.w3.org/2000/svg">
<path fill-rule="evenodd" clip-rule="evenodd" d="M0 6C0 2.68629 2.68629 0 6 0H24C27.3137 0 30 2.68629 30 6V24C30 27.3137 27.3137 30 24 30H6C2.68629 30 0 27.3137 0 24V6ZM28.1746 8.53224V12.2204H22.3893V20.7176C22.3893 21.5854 22.6062 22.2242 23.0401 22.634C23.4981 23.0197 24.1128 23.2126 24.8842 23.2126C25.5109 23.2126 26.0413 23.1282 26.4752 22.9595C26.9332 22.7666 27.343 22.5135 27.7045 22.2001L28.5 25.4906C27.8974 25.9486 27.1622 26.3101 26.2944 26.5753C25.4507 26.8405 24.5467 26.9731 23.5825 26.9731C21.7746 26.9731 20.2921 26.5633 19.135 25.7437C18.002 24.9 17.4356 23.4898 17.4356 21.5131V12.2204H14.109V8.53224H17.4356V4.37402L22.3893 3V8.53224H28.1746ZM9.5831 16.1436C10.0351 16.5775 10.2611 17.1832 10.2611 17.9606V18.4759L5.59663 19.425C4.38532 19.66 3.45424 20.103 2.80339 20.7538C2.15253 21.3866 1.82711 22.2092 1.82711 23.2216C1.82711 24.4149 2.22485 25.3279 3.02034 25.9607C3.8339 26.5753 4.9277 26.8827 6.30172 26.8827C7.15144 26.8827 7.97405 26.72 8.76953 26.3946C9.5831 26.051 10.2068 25.5539 10.6407 24.903C10.8396 25.5539 11.2193 26.042 11.7797 26.3674C12.3583 26.6929 13.0362 26.8556 13.8136 26.8556C14.5187 26.8556 15.1063 26.7381 15.5764 26.503L15.7933 24.1979C15.5221 24.2883 15.2329 24.3335 14.9255 24.3335C14.2747 24.3335 13.9492 23.99 13.9492 23.303V17.7979C13.9492 16.1346 13.3978 14.8871 12.295 14.0555C11.2102 13.2058 9.78197 12.7809 8.0102 12.7809C6.25652 12.7809 4.85538 13.1425 3.80678 13.8657C2.77627 14.5888 2.10734 15.547 1.79999 16.7402L4.97289 17.7165C5.20792 16.921 5.57855 16.3515 6.08477 16.008C6.59099 15.6645 7.17856 15.4928 7.84749 15.4928C8.57066 15.4928 9.1492 15.7097 9.5831 16.1436ZM6.03053 23.8996C5.7051 23.6646 5.54239 23.3211 5.54239 22.8691C5.54239 22.399 5.69606 22.0646 6.00341 21.8657C6.32884 21.6488 6.7989 21.477 7.41359 21.3504L10.2611 20.781V21.6216C10.2611 22.2725 10.1164 22.7968 9.82717 23.1945C9.5379 23.5742 9.16727 23.8454 8.71529 24.0081C8.26331 24.1708 7.77517 24.2522 7.25088 24.2522C6.78082 24.2522 6.37403 24.1347 6.03053 23.8996Z" fill="#C4C4C4"/>
</svg>
