<svg width="35" height="35" viewBox="0 0 35 35" fill="none" xmlns="http://www.w3.org/2000/svg">
<path fill-rule="evenodd" clip-rule="evenodd" d="M0 6C0 2.68629 2.68629 0 6 0H29C32.3137 0 35 2.68629 35 6V29C35 32.3137 32.3137 35 29 35H6C2.68629 35 0 32.3137 0 29V6ZM30.3746 10.5322V14.2204H24.5893V22.7176C24.5893 23.5854 24.8062 24.2242 25.2401 24.634C25.6981 25.0197 26.3128 25.2126 27.0842 25.2126C27.7109 25.2126 28.2413 25.1282 28.6752 24.9595C29.1332 24.7666 29.543 24.5135 29.9046 24.2001L30.7 27.4906C30.0974 27.9486 29.3622 28.3101 28.4944 28.5753C27.6507 28.8405 26.7467 28.9731 25.7825 28.9731C23.9746 28.9731 22.4921 28.5633 21.335 27.7437C20.202 26.9 19.6356 25.4898 19.6356 23.5131V14.2204H16.309V10.5322H19.6356V6.37402L24.5893 5V10.5322H30.3746ZM11.7831 18.1436C12.2351 18.5775 12.4611 19.1832 12.4611 19.9606V20.4759L7.79664 21.425C6.58533 21.66 5.65425 22.103 5.0034 22.7538C4.35254 23.3866 4.02712 24.2092 4.02712 25.2216C4.02712 26.4149 4.42486 27.3279 5.22035 27.9607C6.03391 28.5753 7.12771 28.8827 8.50173 28.8827C9.35145 28.8827 10.1741 28.72 10.9695 28.3946C11.7831 28.051 12.4068 27.5539 12.8407 26.903C13.0396 27.5539 13.4193 28.042 13.9797 28.3674C14.5583 28.6929 15.2362 28.8556 16.0136 28.8556C16.7187 28.8556 17.3063 28.7381 17.7764 28.503L17.9933 26.1979C17.7221 26.2883 17.4329 26.3335 17.1255 26.3335C16.4747 26.3335 16.1492 25.99 16.1492 25.303V19.7979C16.1492 18.1346 15.5978 16.8871 14.495 16.0555C13.4102 15.2058 11.982 14.7809 10.2102 14.7809C8.45653 14.7809 7.05539 15.1425 6.00679 15.8657C4.97628 16.5888 4.30735 17.547 4 18.7402L7.1729 19.7165C7.40793 18.921 7.77856 18.3515 8.28478 18.008C8.79099 17.6645 9.37857 17.4928 10.0475 17.4928C10.7707 17.4928 11.3492 17.7097 11.7831 18.1436ZM8.23054 25.8996C7.90511 25.6646 7.7424 25.3211 7.7424 24.8691C7.7424 24.399 7.89607 24.0646 8.20342 23.8657C8.52885 23.6488 8.99891 23.477 9.6136 23.3504L12.4611 22.781V23.6216C12.4611 24.2725 12.3164 24.7968 12.0272 25.1945C11.7379 25.5742 11.3673 25.8454 10.9153 26.0081C10.4633 26.1708 9.97518 26.2522 9.45089 26.2522C8.98083 26.2522 8.57404 26.1347 8.23054 25.8996Z" fill="#C4C4C4"/>
</svg>
